<svg xmlns="http://www.w3.org/2000/svg" viewBox="0 0 1024 1024">
  <g fill="none" stroke="#FFFFFF" stroke-width="40" stroke-linecap="round" stroke-linejoin="round">
    <polygon points="121,291 507,64 890,282 903,731 515,963 116,719" />
    <path d="M254 395 L344 507" />
    <path d="M257 620 L341 520" />
    <path d="M361 560 L456 560" />
    <circle cx="665" cy="509" r="79" />
    <circle cx="529" cy="397" r="39" />
    <path d="M665 509 L529 397" />
    <circle cx="797" cy="625" r="39" />
    <path d="M665 509 L797 625" />
    <circle cx="667" cy="307" r="37" />
    <path d="M665 509 L667 307" />
    <circle cx="529" cy="625" r="35" />
    <path d="M665 509 L529 625" />
    <circle cx="671" cy="715" r="35" />
    <path d="M665 509 L671 715" />
    <circle cx="805" cy="409" r="34" />
    <path d="M665 509 L805 409" />
  </g>
</svg>
