<svg width="1280" height="640" viewBox="0 0 1280 640" xmlns="http://www.w3.org/2000/svg">
    <defs>
        <!-- Light background gradient -->
        <linearGradient id="bg" x1="0" y1="0" x2="1" y2="1">
            <stop offset="0" stop-color="#F8FAFC"/>
            <stop offset="0.55" stop-color="#FFFFFF"/>
            <stop offset="1" stop-color="#F1F5F9"/>
        </linearGradient>

        <!-- Subtle grid -->
        <pattern id="grid" width="40" height="40" patternUnits="userSpaceOnUse">
            <path d="M40 0H0V40" fill="none" stroke="#00000008" stroke-width="1"/>
        </pattern>

        <!-- Soft hub glow -->
        <radialGradient id="glow" cx="50%" cy="50%" r="50%">
            <stop offset="0" stop-color="#6366F133"/>
            <stop offset="0.55" stop-color="#3B82F622"/>
            <stop offset="1" stop-color="#00000000"/>
        </radialGradient>
    </defs>

    <!-- Background -->
    <rect width="1280" height="640" fill="url(#bg)"/>
    <rect width="1280" height="640" fill="url(#grid)" opacity="0.35"/>

    <!-- LEFT: Brand & message -->
    <g font-family="Inter, SF Pro Display, -apple-system, BlinkMacSystemFont, Segoe UI, Arial, sans-serif">
        <text x="70" y="255" font-size="120" font-weight="900" fill="#0F172A" letter-spacing="4">
            ASKIMO
        </text>

        <text x="74" y="308" font-size="32" font-weight="700" fill="#334155">
            AI client with RAG, Plans, Agents
        </text>
        <text x="74" y="348" font-size="32" font-weight="700" fill="#334155">
            MCP, Scripts &amp; more
        </text>

        <text x="74" y="385" font-size="24" font-weight="500" fill="#64748B">
            Multi-provider · Local-first · Privacy by default
        </text>
    </g>

    <!-- Feature pills (bottom) -->
    <g font-family="Inter, SF Pro Display, Arial, sans-serif" font-size="20" font-weight="700" text-anchor="middle" dominant-baseline="middle">
        <rect x="47" y="582" width="90" height="36" rx="18" fill="#EEF2FF" stroke="#6366F1" stroke-width="2"/>
        <text x="92" y="600" fill="#4338CA">Chat</text>

        <rect x="149" y="582" width="80" height="36" rx="18" fill="#ECFDF5" stroke="#10B981" stroke-width="2"/>
        <text x="189" y="600" fill="#065F46">RAG</text>

        <rect x="241" y="582" width="94" height="36" rx="18" fill="#FFF7ED" stroke="#F97316" stroke-width="2"/>
        <text x="288" y="600" fill="#9A3412">Plans</text>

        <rect x="347" y="582" width="104" height="36" rx="18" fill="#FDF4FF" stroke="#A855F7" stroke-width="2"/>
        <text x="399" y="600" fill="#7E22CE">Agents</text>

        <rect x="463" y="582" width="82" height="36" rx="18" fill="#EFF6FF" stroke="#3B82F6" stroke-width="2"/>
        <text x="504" y="600" fill="#1E40AF">MCP</text>

        <rect x="557" y="582" width="106" height="36" rx="18" fill="#FFF1F2" stroke="#F43F5E" stroke-width="2"/>
        <text x="610" y="600" fill="#BE123C">Scripts</text>

        <rect x="675" y="582" width="72" height="36" rx="18" fill="#F0FDF4" stroke="#22C55E" stroke-width="2"/>
        <text x="711" y="600" fill="#15803D">CLI</text>

        <rect x="759" y="582" width="100" height="36" rx="18" fill="#FFF7ED" stroke="#F97316" stroke-width="2"/>
        <text x="809" y="600" fill="#9A3412">Vision</text>
    </g>

    <!-- RIGHT: HUB SYSTEM (LIGHT MODE) -->

    <!-- Ambient glow -->
    <circle cx="980" cy="340" r="260" fill="url(#glow)"/>

    <!-- Segmented integration ring -->
    <circle
            cx="980"
            cy="340"
            r="220"
            fill="none"
            stroke="#0F172A22"
            stroke-width="3"
            stroke-dasharray="18 10"
    />

    <!-- Primary authority ring -->
    <circle
            cx="980"
            cy="340"
            r="195"
            fill="none"
            stroke="#0F172A55"
            stroke-width="3"
    />

    <!-- Inner energy ring -->
    <circle
            cx="980"
            cy="340"
            r="165"
            fill="none"
            stroke="#8B9CFF66"
            stroke-width="2"
    />

    <!-- Light core -->
    <circle cx="980" cy="340" r="140" fill="#FFFFFF"/>


    <!-- Provider pills -->
    <g font-family="Inter, SF Pro Display, Arial"
       font-size="18"
       font-weight="750"
       text-anchor="middle"
       dominant-baseline="middle">

        <!-- Highlighted -->
        <g>
            <rect x="915" y="95" width="130" height="38" rx="19"
                  fill="#EEF2FF" stroke="#6366F1" stroke-width="2.5"/>
            <text x="980" y="114" fill="#0F172A">OpenAI</text>
        </g>

        <g>
            <rect x="1115" y="155" width="150" height="38" rx="19"
                  fill="#EEF2FF" stroke="#6366F1" stroke-width="2.5"/>
            <text x="1190" y="174" fill="#0F172A">Anthropic</text>
        </g>

        <g>
            <rect x="1140" y="310" width="120" height="38" rx="19"
                  fill="#EEF2FF" stroke="#6366F1" stroke-width="2.5"/>
            <text x="1200" y="329" fill="#0F172A">Gemini</text>
        </g>

        <!-- Secondary -->
        <g>
            <rect x="1090" y="470" width="170" height="38" rx="19"
                  fill="#FFFFFF" stroke="#CBD5E1" stroke-width="2"/>
            <text x="1175" y="489" fill="#334155">LM Studio</text>
        </g>

        <g>
            <rect x="915" y="540" width="130" height="38" rx="19"
                  fill="#FFFFFF" stroke="#CBD5E1" stroke-width="2"/>
            <text x="980" y="559" fill="#334155">Ollama</text>
        </g>

        <g>
            <rect x="720" y="470" width="165" height="38" rx="19"
                  fill="#FFFFFF" stroke="#CBD5E1" stroke-width="2"/>
            <text x="802.5" y="489" fill="#334155">Docker AI</text>
        </g>

        <g>
            <rect x="705" y="310" width="140" height="38" rx="19"
                  fill="#FFFFFF" stroke="#CBD5E1" stroke-width="2"/>
            <text x="775" y="329" fill="#334155">LocalAI</text>
        </g>

        <g>
            <rect x="760" y="155" width="90" height="38" rx="19"
                  fill="#FFFFFF" stroke="#CBD5E1" stroke-width="2"/>
            <text x="805" y="174" fill="#334155">X</text>
        </g>
    </g>

    <!-- Askimo logo (BLACK STROKE, CENTERED) -->
    <g transform="translate(867.36 227.36) scale(0.22)"
       fill="none"
       stroke="#0F172A"
       stroke-width="40"
       stroke-linecap="round"
       stroke-linejoin="round">
        <polygon points="121,291 507,64 890,282 903,731 515,963 116,719" />
        <path d="M254 395 L344 507" />
        <path d="M257 620 L341 520" />
        <path d="M361 560 L456 560" />
        <circle cx="665" cy="509" r="79" />
        <circle cx="529" cy="397" r="39" />
        <path d="M665 509 L529 397" />
        <circle cx="797" cy="625" r="39" />
        <path d="M665 509 L797 625" />
        <circle cx="667" cy="307" r="37" />
        <path d="M665 509 L667 307" />
        <circle cx="529" cy="625" r="35" />
        <path d="M665 509 L529 625" />
        <circle cx="671" cy="715" r="35" />
        <path d="M665 509 L671 715" />
        <circle cx="805" cy="409" r="34" />
        <path d="M665 509 L805 409" />
    </g>

</svg>
